<svg xmlns="http://www.w3.org/2000/svg" xmlns:xlink="http://www.w3.org/1999/xlink" version="1.1" width="200" height="155" enable-background="new 796 796 200 200" xml:space="preserve" style=""><rect id="backgroundrect" width="100%" height="100%" x="0" y="0" fill="none" stroke="none" class="" style=""/>

<g class="currentLayer" style=""><title>Layer 1</title><g id="svg_1" class="selected" fill="#b6b6b6" fill-opacity="1">
	<path d="M177.16600000000005,0 H22.83299999999997 c-12.591,0 -22.833,10.243 -22.833,22.833 v109.333 c0,12.59 10.243,22.833 22.833,22.833 h154.333 c12.59,0 22.834,-10.243 22.834,-22.833 V22.83299999999997 C200,10.243000000000052 189.75599999999997,0 177.16600000000005,0 zM100,143 h-77.167 c-5.973,0 -10.833,-4.859 -10.833,-10.833 V22.83299999999997 c0,-5.974 4.86,-10.833 10.833,-10.833 H100 V143 zM182.58000000000004,53.62900000000002 c-0.547,9.145 -5.668,27.261 -20.869,39.845 c4.615,1.022 9.629,1.573 14.92,1.573 v12 c-10.551,0 -20.238,-1.919 -28.469,-5.325 c-7.689,3.301 -16.969,5.325 -28.125,5.325 v-12 c5.132,0 9.924,-0.501 14.366,-1.498 c-8.412,-7.016 -13.382,-16.311 -13.382,-26.78 h11.999 c0,8.857 5.66,16.517 14.884,21.623 c4.641,-2.66 8.702,-6.112 12.164,-10.351 c5.628,-6.886 8.502,-14.521 9.754,-20.042 h-49.785 v-12 h22.297 v-11.986 h12 V46 h21.055 c1.986,0 3.902,0.8310000000000005 5.258,2.2800000000000002 C181.986,49.698999999999955 182.697,51.65499999999997 182.58000000000004,53.62900000000002 z" id="svg_2" fill="#b6b6b6" fill-opacity="1"/>
	<g id="svg_3" fill="#b6b6b6" fill-opacity="1">
		<g id="svg_4" fill="#b6b6b6" fill-opacity="1">
			<path d="M43.03499999999997,95.76199999999994 l-4.45,11.258 h-15.971 l26.355,-61.09 h15.971 l25.746,61.09 h-16.583 l-4.363,-11.258 H43.03499999999997 zM56.47500000000002,61.375999999999976 l-8.902,22.604 h17.629 L56.47500000000002,61.375999999999976 z" id="svg_5" fill="#b6b6b6" fill-opacity="1"/>
		</g>
	</g>
</g></g></svg>